<svg width="702" height="360" viewBox="0 0 702 360" fill="none" xmlns="http://www.w3.org/2000/svg">
<g filter="url(#filter0_d_122_171)">
<rect width="688" height="340" transform="translate(0 10)" fill="#E5E4E2"/>
<path d="M29.187 49.71C28.179 49.71 27.3203 49.4907 26.611 49.052C25.9017 48.6087 25.358 47.9927 24.98 47.204C24.6067 46.4153 24.42 45.5007 24.42 44.46C24.42 43.4193 24.6067 42.5047 24.98 41.716C25.358 40.9273 25.9017 40.3137 26.611 39.875C27.3203 39.4317 28.179 39.21 29.187 39.21C30.1903 39.21 31.0467 39.4317 31.756 39.875C32.47 40.3137 33.0137 40.9273 33.387 41.716C33.7603 42.5047 33.947 43.4193 33.947 44.46C33.947 45.5007 33.7603 46.4153 33.387 47.204C33.0137 47.9927 32.47 48.6087 31.756 49.052C31.0467 49.4907 30.1903 49.71 29.187 49.71ZM29.187 48.317C29.901 48.3263 30.4937 48.17 30.965 47.848C31.441 47.5213 31.798 47.0687 32.036 46.49C32.274 45.9067 32.393 45.23 32.393 44.46C32.393 43.69 32.274 43.018 32.036 42.444C31.798 41.8653 31.441 41.415 30.965 41.093C30.4937 40.771 29.901 40.6077 29.187 40.603C28.473 40.5937 27.878 40.75 27.402 41.072C26.9307 41.394 26.576 41.8467 26.338 42.43C26.1 43.0133 25.9787 43.69 25.974 44.46C25.9693 45.23 26.086 45.9043 26.324 46.483C26.562 47.057 26.919 47.505 27.395 47.827C27.8757 48.149 28.473 48.3123 29.187 48.317ZM38.4513 49.717C37.7326 49.7123 37.1213 49.556 36.6173 49.248C36.1133 48.94 35.7189 48.4967 35.4343 47.918C35.1543 47.3347 34.9909 46.6323 34.9443 45.811C34.9209 45.4143 34.9233 44.9757 34.9513 44.495C34.9793 44.0097 35.0306 43.5407 35.1053 43.088C35.1846 42.6353 35.2849 42.2573 35.4063 41.954C35.5416 41.618 35.7259 41.31 35.9593 41.03C36.1926 40.7453 36.4493 40.5073 36.7293 40.316C37.0279 40.1107 37.3593 39.952 37.7233 39.84C38.0873 39.7233 38.4676 39.6323 38.8643 39.567C39.2656 39.5017 39.6693 39.4457 40.0753 39.399C40.4859 39.3477 40.8849 39.2847 41.2723 39.21L41.4123 40.519C41.1556 40.5797 40.8523 40.6287 40.5023 40.666C40.1569 40.7033 39.7976 40.7453 39.4243 40.792C39.0556 40.8387 38.7033 40.904 38.3673 40.988C38.0313 41.072 37.7396 41.191 37.4923 41.345C37.1423 41.5597 36.8739 41.8723 36.6873 42.283C36.5053 42.6937 36.3956 43.1393 36.3583 43.62C36.6476 43.1813 37.0163 42.8663 37.4643 42.675C37.9123 42.479 38.3766 42.381 38.8573 42.381C39.5293 42.381 40.1079 42.5397 40.5933 42.857C41.0833 43.1743 41.4589 43.606 41.7203 44.152C41.9816 44.698 42.1123 45.3163 42.1123 46.007C42.1123 46.7537 41.9583 47.407 41.6503 47.967C41.3469 48.5223 40.9199 48.9563 40.3693 49.269C39.8186 49.577 39.1793 49.7263 38.4513 49.717ZM38.5283 48.338C39.2003 48.338 39.7066 48.1303 40.0473 47.715C40.3926 47.2997 40.5653 46.7467 40.5653 46.056C40.5653 45.3467 40.3879 44.789 40.0333 44.383C39.6786 43.977 39.1769 43.774 38.5283 43.774C37.8703 43.774 37.3663 43.977 37.0163 44.383C36.6709 44.789 36.4983 45.3467 36.4983 46.056C36.4983 46.7747 36.6733 47.3347 37.0233 47.736C37.3733 48.1373 37.8749 48.338 38.5283 48.338ZM51.9508 50.991V49.5H43.6488V41.94H45.0558V48.184H47.4288V41.94H48.8358V48.184H51.2018V41.94H52.6088V48.184H53.4138V50.991H51.9508ZM60.9086 41.94V49.5H59.5016V44.243L55.7216 49.5H54.5316V41.94H55.9386V47.092L59.7256 41.94H60.9086ZM66.2178 49.71C65.4664 49.71 64.8061 49.5467 64.2368 49.22C63.6721 48.8887 63.2311 48.429 62.9138 47.841C62.6011 47.2483 62.4448 46.5623 62.4448 45.783C62.4448 44.957 62.5988 44.2407 62.9068 43.634C63.2194 43.0273 63.6534 42.5583 64.2088 42.227C64.7641 41.8957 65.4104 41.73 66.1478 41.73C66.9178 41.73 67.5734 41.9097 68.1148 42.269C68.6561 42.6237 69.0598 43.13 69.3258 43.788C69.5964 44.446 69.7038 45.2277 69.6478 46.133H68.1848V45.601C68.1754 44.7237 68.0074 44.075 67.6808 43.655C67.3588 43.235 66.8664 43.025 66.2038 43.025C65.4711 43.025 64.9204 43.256 64.5518 43.718C64.1831 44.18 63.9988 44.8473 63.9988 45.72C63.9988 46.5507 64.1831 47.1947 64.5518 47.652C64.9204 48.1047 65.4524 48.331 66.1478 48.331C66.6051 48.331 66.9994 48.2283 67.3308 48.023C67.6668 47.813 67.9281 47.5143 68.1148 47.127L69.5498 47.582C69.2558 48.2587 68.8101 48.7837 68.2128 49.157C67.6154 49.5257 66.9504 49.71 66.2178 49.71ZM63.5228 46.133V44.992H68.9198V46.133H63.5228ZM77.57 49.71C76.8467 49.71 76.24 49.535 75.75 49.185C75.26 48.8303 74.889 48.352 74.637 47.75C74.385 47.148 74.259 46.469 74.259 45.713C74.259 44.957 74.3827 44.278 74.63 43.676C74.882 43.074 75.2507 42.6003 75.736 42.255C76.226 41.905 76.828 41.73 77.542 41.73C78.2513 41.73 78.8627 41.905 79.376 42.255C79.894 42.6003 80.293 43.074 80.573 43.676C80.853 44.2733 80.993 44.9523 80.993 45.713C80.993 46.469 80.853 47.1503 80.573 47.757C80.2977 48.359 79.9033 48.835 79.39 49.185C78.8813 49.535 78.2747 49.71 77.57 49.71ZM74.014 52.86V41.94H75.316V47.379H75.484V52.86H74.014ZM77.367 48.387C77.8337 48.387 78.2187 48.268 78.522 48.03C78.83 47.792 79.0587 47.4723 79.208 47.071C79.362 46.665 79.439 46.2123 79.439 45.713C79.439 45.2183 79.362 44.7703 79.208 44.369C79.0587 43.9677 78.8277 43.648 78.515 43.41C78.2023 43.172 77.8033 43.053 77.318 43.053C76.8607 43.053 76.4827 43.165 76.184 43.389C75.89 43.613 75.6707 43.9257 75.526 44.327C75.386 44.7283 75.316 45.1903 75.316 45.713C75.316 46.2357 75.386 46.6977 75.526 47.099C75.666 47.5003 75.8877 47.8153 76.191 48.044C76.4943 48.2727 76.8863 48.387 77.367 48.387ZM84.6736 49.71C84.1136 49.71 83.6446 49.6073 83.2666 49.402C82.8886 49.192 82.6016 48.9167 82.4056 48.576C82.2143 48.2307 82.1186 47.8527 82.1186 47.442C82.1186 47.0593 82.1863 46.7233 82.3216 46.434C82.4569 46.1447 82.6576 45.8997 82.9236 45.699C83.1896 45.4937 83.5163 45.328 83.9036 45.202C84.2396 45.104 84.6199 45.0177 85.0446 44.943C85.4693 44.8683 85.9149 44.7983 86.3816 44.733C86.8529 44.6677 87.3196 44.6023 87.7816 44.537L87.2496 44.831C87.2589 44.2383 87.1329 43.7997 86.8716 43.515C86.6149 43.2257 86.1716 43.081 85.5416 43.081C85.1449 43.081 84.7809 43.1743 84.4496 43.361C84.1183 43.543 83.8873 43.8463 83.7566 44.271L82.3916 43.851C82.5783 43.2023 82.9329 42.6867 83.4556 42.304C83.9829 41.9213 84.6829 41.73 85.5556 41.73C86.2323 41.73 86.8203 41.8467 87.3196 42.08C87.8236 42.3087 88.1923 42.6727 88.4256 43.172C88.5469 43.4193 88.6216 43.6807 88.6496 43.956C88.6776 44.2313 88.6916 44.5277 88.6916 44.845V49.5H87.3966V47.771L87.6486 47.995C87.3359 48.5737 86.9369 49.0053 86.4516 49.29C85.9709 49.57 85.3783 49.71 84.6736 49.71ZM84.9326 48.513C85.3479 48.513 85.7049 48.4407 86.0036 48.296C86.3023 48.1467 86.5426 47.9577 86.7246 47.729C86.9066 47.5003 87.0256 47.2623 87.0816 47.015C87.1609 46.791 87.2053 46.539 87.2146 46.259C87.2286 45.979 87.2356 45.755 87.2356 45.587L87.7116 45.762C87.2496 45.832 86.8296 45.895 86.4516 45.951C86.0736 46.007 85.7306 46.063 85.4226 46.119C85.1193 46.1703 84.8486 46.2333 84.6106 46.308C84.4099 46.378 84.2303 46.462 84.0716 46.56C83.9176 46.658 83.7939 46.777 83.7006 46.917C83.6119 47.057 83.5676 47.2273 83.5676 47.428C83.5676 47.624 83.6166 47.806 83.7146 47.974C83.8126 48.1373 83.9619 48.268 84.1626 48.366C84.3633 48.464 84.6199 48.513 84.9326 48.513ZM93.7433 49.71C92.9686 49.71 92.3106 49.5373 91.7693 49.192C91.228 48.8467 90.8126 48.373 90.5233 47.771C90.2386 47.169 90.094 46.4853 90.0893 45.72C90.094 44.9407 90.2433 44.2523 90.5373 43.655C90.8313 43.053 91.2513 42.5817 91.7973 42.241C92.3433 41.9003 92.999 41.73 93.7643 41.73C94.5903 41.73 95.295 41.9353 95.8783 42.346C96.4663 42.7567 96.8536 43.319 97.0403 44.033L95.5843 44.453C95.4396 44.0283 95.2016 43.6993 94.8703 43.466C94.5436 43.228 94.168 43.109 93.7433 43.109C93.2626 43.109 92.8683 43.2233 92.5603 43.452C92.2523 43.676 92.0236 43.984 91.8743 44.376C91.725 44.768 91.648 45.216 91.6433 45.72C91.648 46.4993 91.8253 47.1293 92.1753 47.61C92.53 48.0907 93.0526 48.331 93.7433 48.331C94.2146 48.331 94.595 48.2237 94.8843 48.009C95.1783 47.7897 95.4023 47.477 95.5563 47.071L97.0403 47.421C96.793 48.1583 96.3846 48.7253 95.8153 49.122C95.246 49.514 94.5553 49.71 93.7433 49.71ZM97.6263 49.5L100.454 45.678L97.6893 41.94H99.4253L101.308 44.537L103.17 41.94H104.906L102.141 45.678L104.976 49.5H103.233L101.308 46.819L99.3693 49.5H97.6263ZM109.105 49.71C108.349 49.71 107.693 49.5397 107.138 49.199C106.582 48.8583 106.153 48.3893 105.85 47.792C105.551 47.19 105.402 46.497 105.402 45.713C105.402 44.9243 105.556 44.2313 105.864 43.634C106.172 43.032 106.603 42.5653 107.159 42.234C107.714 41.898 108.363 41.73 109.105 41.73C109.861 41.73 110.516 41.9003 111.072 42.241C111.627 42.5817 112.056 43.0507 112.36 43.648C112.663 44.2453 112.815 44.9337 112.815 45.713C112.815 46.5017 112.661 47.197 112.353 47.799C112.049 48.3963 111.62 48.8653 111.065 49.206C110.509 49.542 109.856 49.71 109.105 49.71ZM109.105 48.331C109.828 48.331 110.367 48.0883 110.722 47.603C111.081 47.113 111.261 46.483 111.261 45.713C111.261 44.9243 111.079 44.2943 110.715 43.823C110.355 43.347 109.819 43.109 109.105 43.109C108.615 43.109 108.211 43.221 107.894 43.445C107.576 43.6643 107.341 43.97 107.187 44.362C107.033 44.7493 106.956 45.1997 106.956 45.713C106.956 46.5063 107.138 47.141 107.502 47.617C107.866 48.093 108.4 48.331 109.105 48.331ZM113.793 51.18V48.324C114.208 48.324 114.505 48.1863 114.682 47.911C114.864 47.631 115.009 47.1573 115.116 46.49C115.181 46.084 115.235 45.6523 115.277 45.195C115.324 44.7377 115.363 44.243 115.396 43.711C115.429 43.1743 115.461 42.584 115.494 41.94H120.912V48.324H121.654V51.18H120.268V49.5H115.186V51.18H113.793ZM115.886 48.324H119.442V43.116H116.796C116.777 43.424 116.756 43.7413 116.733 44.068C116.714 44.3947 116.691 44.719 116.663 45.041C116.64 45.363 116.612 45.671 116.579 45.965C116.546 46.259 116.509 46.525 116.467 46.763C116.411 47.1317 116.343 47.4397 116.264 47.687C116.189 47.9343 116.063 48.1467 115.886 48.324ZM123.041 49.5V41.94H124.511V44.565H125.505C125.72 44.565 125.951 44.5697 126.198 44.579C126.446 44.5883 126.656 44.6117 126.828 44.649C127.234 44.733 127.587 44.873 127.885 45.069C128.184 45.265 128.413 45.5263 128.571 45.853C128.735 46.175 128.816 46.5717 128.816 47.043C128.816 47.701 128.646 48.226 128.305 48.618C127.965 49.0053 127.503 49.2667 126.919 49.402C126.733 49.444 126.511 49.472 126.254 49.486C126.002 49.4953 125.769 49.5 125.554 49.5H123.041ZM124.511 48.324H125.638C125.76 48.324 125.895 48.3193 126.044 48.31C126.194 48.3007 126.331 48.2797 126.457 48.247C126.677 48.1817 126.875 48.0487 127.052 47.848C127.23 47.6473 127.318 47.379 127.318 47.043C127.318 46.6977 127.23 46.4223 127.052 46.217C126.88 46.0117 126.66 45.8787 126.394 45.818C126.273 45.7853 126.145 45.7643 126.009 45.755C125.879 45.7457 125.755 45.741 125.638 45.741H124.511V48.324ZM129.649 49.5V41.94H131.112V49.5H129.649Z" fill="black"/>
<path d="M24.9038 103.818H25.9776C26.0089 104.114 26.1097 104.364 26.2802 104.568C26.4535 104.77 26.6779 104.923 26.9535 105.028C27.229 105.131 27.5344 105.182 27.8697 105.182C28.2333 105.182 28.56 105.121 28.8498 104.999C29.1396 104.876 29.3697 104.695 29.5401 104.453C29.7106 104.209 29.7958 103.906 29.7958 103.545C29.7958 103.23 29.7219 102.937 29.5742 102.668C29.4265 102.395 29.1893 102.175 28.8626 102.007C28.5359 101.839 28.1026 101.756 27.5629 101.756H26.864V100.903L29.0458 98.2784V98.2102H25.3299V97.2727H30.4947V98.0398L28.1594 100.869V100.938C28.5344 100.955 28.8839 101.031 29.2077 101.168C29.5344 101.304 29.8185 101.489 30.06 101.722C30.3043 101.955 30.4947 102.226 30.631 102.536C30.7674 102.845 30.8356 103.182 30.8356 103.545C30.8356 104.043 30.7077 104.486 30.4521 104.875C30.1992 105.261 29.8484 105.565 29.3995 105.787C28.9535 106.009 28.4379 106.119 27.8526 106.119C27.3356 106.119 26.8597 106.028 26.4251 105.847C25.9904 105.665 25.6367 105.402 25.364 105.058C25.0913 104.714 24.9379 104.301 24.9038 103.818ZM35.4219 106.119C34.7798 106.119 34.233 105.945 33.7812 105.595C33.3295 105.243 32.9844 104.733 32.7457 104.065C32.5071 103.395 32.3878 102.585 32.3878 101.636C32.3878 100.693 32.5071 99.8878 32.7457 99.2202C32.9872 98.5497 33.3338 98.0384 33.7855 97.6861C34.2401 97.331 34.7855 97.1534 35.4219 97.1534C36.0582 97.1534 36.6023 97.331 37.054 97.6861C37.5085 98.0384 37.8551 98.5497 38.0938 99.2202C38.3352 99.8878 38.456 100.693 38.456 101.636C38.456 102.585 38.3366 103.395 38.098 104.065C37.8594 104.733 37.5142 105.243 37.0625 105.595C36.6108 105.945 36.0639 106.119 35.4219 106.119ZM35.4219 105.182C36.0582 105.182 36.5526 104.875 36.9048 104.261C37.2571 103.648 37.4332 102.773 37.4332 101.636C37.4332 100.881 37.3523 100.237 37.1903 99.706C37.0313 99.1747 36.8011 98.7699 36.5 98.4915C36.2017 98.2131 35.8423 98.0739 35.4219 98.0739C34.7912 98.0739 34.2983 98.3849 33.9432 99.0071C33.5881 99.6264 33.4105 100.503 33.4105 101.636C33.4105 102.392 33.4901 103.034 33.6491 103.562C33.8082 104.091 34.0369 104.493 34.3352 104.768C34.6364 105.044 34.9986 105.182 35.4219 105.182ZM40.2287 106V97.2727H41.2855V101.602H41.3878L45.3082 97.2727H46.6889L43.0241 101.21L46.6889 106H45.4105L42.3764 101.943L41.2855 103.17V106H40.2287Z" fill="black" fill-opacity="0.4"/>
<path d="M25.3097 170V169.233L28.1903 166.08C28.5284 165.71 28.8068 165.389 29.0256 165.116C29.2443 164.841 29.4063 164.582 29.5114 164.341C29.6193 164.097 29.6733 163.841 29.6733 163.574C29.6733 163.267 29.5994 163.001 29.4517 162.777C29.3068 162.553 29.108 162.379 28.8551 162.257C28.6023 162.135 28.3182 162.074 28.0028 162.074C27.6676 162.074 27.375 162.143 27.125 162.283C26.8778 162.419 26.6861 162.611 26.5497 162.858C26.4162 163.105 26.3494 163.395 26.3494 163.727H25.3438C25.3438 163.216 25.4616 162.767 25.6974 162.381C25.9332 161.994 26.2543 161.693 26.6605 161.477C27.0696 161.261 27.5284 161.153 28.0369 161.153C28.5483 161.153 29.0014 161.261 29.3963 161.477C29.7912 161.693 30.1009 161.984 30.3253 162.351C30.5497 162.717 30.6619 163.125 30.6619 163.574C30.6619 163.895 30.6037 164.209 30.4872 164.516C30.3736 164.82 30.1747 165.159 29.8906 165.534C29.6094 165.906 29.2188 166.361 28.7188 166.898L26.7585 168.994V169.062H30.8153V170H25.3097ZM35.4219 170.119C34.7798 170.119 34.233 169.945 33.7812 169.595C33.3295 169.243 32.9844 168.733 32.7457 168.065C32.5071 167.395 32.3878 166.585 32.3878 165.636C32.3878 164.693 32.5071 163.888 32.7457 163.22C32.9872 162.55 33.3338 162.038 33.7855 161.686C34.2401 161.331 34.7855 161.153 35.4219 161.153C36.0582 161.153 36.6023 161.331 37.054 161.686C37.5085 162.038 37.8551 162.55 38.0938 163.22C38.3352 163.888 38.456 164.693 38.456 165.636C38.456 166.585 38.3366 167.395 38.098 168.065C37.8594 168.733 37.5142 169.243 37.0625 169.595C36.6108 169.945 36.0639 170.119 35.4219 170.119ZM35.4219 169.182C36.0582 169.182 36.5526 168.875 36.9048 168.261C37.2571 167.648 37.4332 166.773 37.4332 165.636C37.4332 164.881 37.3523 164.237 37.1903 163.706C37.0313 163.175 36.8011 162.77 36.5 162.491C36.2017 162.213 35.8423 162.074 35.4219 162.074C34.7912 162.074 34.2983 162.385 33.9432 163.007C33.5881 163.626 33.4105 164.503 33.4105 165.636C33.4105 166.392 33.4901 167.034 33.6491 167.562C33.8082 168.091 34.0369 168.493 34.3352 168.768C34.6364 169.044 34.9986 169.182 35.4219 169.182ZM40.2287 170V161.273H41.2855V165.602H41.3878L45.3082 161.273H46.6889L43.0241 165.21L46.6889 170H45.4105L42.3764 165.943L41.2855 167.17V170H40.2287Z" fill="black" fill-opacity="0.4"/>
<path d="M30.0739 225.273V234H29.017V226.807H28.9489C28.9091 226.886 28.8068 226.977 28.642 227.08C28.4773 227.179 28.2642 227.267 28.0028 227.344C27.7415 227.418 27.4432 227.455 27.108 227.455V226.568C27.446 226.568 27.7386 226.507 27.9858 226.385C28.233 226.263 28.4389 226.119 28.6037 225.955C28.7713 225.79 28.8977 225.641 28.983 225.507C29.071 225.374 29.1222 225.295 29.1364 225.273H30.0739ZM35.4219 234.119C34.7798 234.119 34.233 233.945 33.7812 233.595C33.3295 233.243 32.9844 232.733 32.7457 232.065C32.5071 231.395 32.3878 230.585 32.3878 229.636C32.3878 228.693 32.5071 227.888 32.7457 227.22C32.9872 226.55 33.3338 226.038 33.7855 225.686C34.2401 225.331 34.7855 225.153 35.4219 225.153C36.0582 225.153 36.6023 225.331 37.054 225.686C37.5085 226.038 37.8551 226.55 38.0938 227.22C38.3352 227.888 38.456 228.693 38.456 229.636C38.456 230.585 38.3366 231.395 38.098 232.065C37.8594 232.733 37.5142 233.243 37.0625 233.595C36.6108 233.945 36.0639 234.119 35.4219 234.119ZM35.4219 233.182C36.0582 233.182 36.5526 232.875 36.9048 232.261C37.2571 231.648 37.4332 230.773 37.4332 229.636C37.4332 228.881 37.3523 228.237 37.1903 227.706C37.0313 227.175 36.8011 226.77 36.5 226.491C36.2017 226.213 35.8423 226.074 35.4219 226.074C34.7912 226.074 34.2983 226.385 33.9432 227.007C33.5881 227.626 33.4105 228.503 33.4105 229.636C33.4105 230.392 33.4901 231.034 33.6491 231.562C33.8082 232.091 34.0369 232.493 34.3352 232.768C34.6364 233.044 34.9986 233.182 35.4219 233.182ZM40.2287 234V225.273H41.2855V229.602H41.3878L45.3082 225.273H46.6889L43.0241 229.21L46.6889 234H45.4105L42.3764 229.943L41.2855 231.17V234H40.2287Z" fill="black" fill-opacity="0.4"/>
<path d="M43.25 298.119C42.608 298.119 42.0611 297.945 41.6094 297.595C41.1577 297.243 40.8125 296.733 40.5739 296.065C40.3352 295.395 40.2159 294.585 40.2159 293.636C40.2159 292.693 40.3352 291.888 40.5739 291.22C40.8153 290.55 41.1619 290.038 41.6136 289.686C42.0682 289.331 42.6136 289.153 43.25 289.153C43.8864 289.153 44.4304 289.331 44.8821 289.686C45.3366 290.038 45.6832 290.55 45.9219 291.22C46.1634 291.888 46.2841 292.693 46.2841 293.636C46.2841 294.585 46.1648 295.395 45.9261 296.065C45.6875 296.733 45.3423 297.243 44.8906 297.595C44.4389 297.945 43.892 298.119 43.25 298.119ZM43.25 297.182C43.8864 297.182 44.3807 296.875 44.733 296.261C45.0852 295.648 45.2614 294.773 45.2614 293.636C45.2614 292.881 45.1804 292.237 45.0185 291.706C44.8594 291.175 44.6293 290.77 44.3281 290.491C44.0298 290.213 43.6705 290.074 43.25 290.074C42.6193 290.074 42.1264 290.385 41.7713 291.007C41.4162 291.626 41.2386 292.503 41.2386 293.636C41.2386 294.392 41.3182 295.034 41.4773 295.562C41.6364 296.091 41.8651 296.493 42.1634 296.768C42.4645 297.044 42.8267 297.182 43.25 297.182Z" fill="black" fill-opacity="0.4"/>
<mask id="mask0_122_171" style="mask-type:alpha" maskUnits="userSpaceOnUse" x="63" y="70" width="601" height="256">
<rect x="63" y="70" width="601" height="256" fill="black"/>
</mask>
<g mask="url(#mask0_122_171)">
<path d="M63 263.067L101.222 216.002C105.219 211.08 111.313 208.345 117.647 208.63L158.3 210.462L204.33 214.465C209.386 214.905 214.42 213.406 218.413 210.272L277.079 164.215C282.084 160.287 289.436 161.968 292.235 167.682L327.204 239.067C330.293 245.372 336.461 249.596 343.457 250.196L391.955 254.353C399.128 254.968 406.078 251.681 410.152 245.745L435.367 209.011C440.61 201.374 450.41 198.336 459.053 201.669L486.829 212.38C498.133 216.74 510.687 210.126 513.484 198.338L525.072 149.507C527.063 141.118 534.206 134.949 542.796 134.2L592.886 129.835C595.416 129.614 597.88 128.914 600.148 127.771L664 95.6" stroke="#AEC7ED" stroke-linecap="round" stroke-dasharray="2 4"/>
</g>
<mask id="mask1_122_171" style="mask-type:alpha" maskUnits="userSpaceOnUse" x="63" y="70" width="601" height="256">
<rect x="63" y="70" width="601" height="256" fill="black"/>
</mask>
<g mask="url(#mask1_122_171)">
<mask id="mask2_122_171" style="mask-type:alpha" maskUnits="userSpaceOnUse" x="63" y="111" width="601" height="215">
<path d="M89.7023 208.683L63 220.225V326H664V141.585L626.02 146.881C622.029 147.437 618.299 149.186 615.319 151.899L590.239 174.729C582.425 181.842 570.425 181.649 562.844 174.288L545.02 156.982C535.59 147.825 521.298 145.874 509.759 152.166L497.087 159.076C489.419 163.258 479.814 160.03 476.228 152.066L461.759 119.933C456.955 109.264 442.328 107.958 435.711 117.609L433.254 121.192C424.684 133.689 409.787 140.271 394.777 138.192L376.56 135.669C368.36 134.533 360.308 138.566 356.307 145.812L328.044 197.002C324.139 204.074 316.363 208.102 308.334 207.213L271.08 203.089C258.618 201.709 246.23 206.253 237.615 215.363L233.05 220.191C220.756 233.191 204.459 241.695 186.763 244.343L172.294 246.508C167.473 247.229 162.825 248.826 158.578 251.218L155.318 253.055C145.105 258.809 132.156 254.587 127.299 243.918L115.84 218.753C111.325 208.837 99.7035 204.36 89.7023 208.683Z" fill="url(#paint0_radial_122_171)"/>
</mask>
<g mask="url(#mask2_122_171)">
<path opacity="0.6" d="M89.7023 208.683L63 220.225V326H664V141.585L626.02 146.881C622.029 147.437 618.299 149.186 615.319 151.899L590.239 174.729C582.425 181.842 570.425 181.649 562.844 174.288L545.02 156.982C535.59 147.825 521.298 145.874 509.759 152.166L497.087 159.076C489.419 163.258 479.814 160.03 476.228 152.066L461.759 119.933C456.955 109.264 442.328 107.958 435.711 117.609L433.254 121.192C424.684 133.689 409.787 140.271 394.777 138.192L376.56 135.669C368.36 134.533 360.308 138.566 356.307 145.812L328.044 197.002C324.139 204.074 316.363 208.102 308.334 207.213L271.08 203.089C258.618 201.709 246.23 206.253 237.615 215.363L233.05 220.191C220.756 233.191 204.459 241.695 186.763 244.343L172.294 246.508C167.473 247.229 162.825 248.826 158.578 251.218L155.318 253.055C145.105 258.809 132.156 254.587 127.299 243.918L115.84 218.753C111.325 208.837 99.7035 204.36 89.7023 208.683Z" fill="black"/>
</g>
<path d="M63 219.716L78.9665 212.843C89.0493 208.502 94.0907 206.332 98.8136 206.606C102.969 206.847 106.946 208.38 110.19 210.989C113.876 213.954 116.158 218.946 120.722 228.929L126.115 240.725C127.204 243.106 127.748 244.296 128.302 245.227C133.425 253.831 144.122 257.32 153.333 253.392C154.329 252.967 155.471 252.326 157.754 251.045V251.045C158.59 250.576 159.008 250.342 159.428 250.119C163.156 248.142 167.174 246.767 171.332 246.046C171.8 245.965 172.274 245.894 173.223 245.753L182.998 244.296C186.777 243.733 188.667 243.452 190.495 243.091C205.516 240.132 219.372 232.926 230.419 222.326C231.764 221.037 233.079 219.651 235.71 216.88V216.88C237.583 214.908 238.52 213.921 239.469 213.043C247.321 205.778 257.755 201.96 268.441 202.443C269.733 202.501 271.085 202.651 273.789 202.949L300.427 205.886C308.078 206.729 311.904 207.151 315.36 206.296C318.414 205.541 321.247 204.075 323.628 202.019C326.322 199.692 328.189 196.326 331.921 189.594L353.1 151.393C356.177 145.841 357.716 143.065 359.799 141.025C362.789 138.097 366.621 136.18 370.757 135.545C373.639 135.102 376.783 135.536 383.071 136.403L392.761 137.74C394.77 138.017 395.775 138.156 396.713 138.24C410.428 139.478 423.816 133.574 432.151 122.611C432.721 121.862 433.296 121.027 434.446 119.356V119.356C435.557 117.742 436.113 116.935 436.545 116.415C443.253 108.337 455.972 109.474 461.141 118.614C461.474 119.203 461.878 120.096 462.685 121.881L473.697 146.236C476.033 151.405 477.202 153.989 478.793 155.74C482.291 159.591 487.535 161.354 492.649 160.399C494.975 159.964 497.467 158.611 502.452 155.903V155.903C509.49 152.081 513.01 150.17 516.524 149.248C524.207 147.233 532.376 148.347 539.239 152.346C542.378 154.175 545.256 156.959 551.014 162.527L554.795 166.183C562.381 173.519 566.174 177.187 570.539 178.619C574.381 179.881 578.516 179.947 582.397 178.81C586.805 177.519 590.714 173.975 598.533 166.887L612.58 154.152C615.297 151.689 616.656 150.457 618.184 149.505C619.541 148.661 620.993 147.982 622.511 147.483C624.221 146.921 626.038 146.669 629.671 146.164L664 141.397" stroke="url(#paint1_linear_122_171)" stroke-linecap="round"/>
<path d="M63 219.716L78.9665 212.843C89.0493 208.502 94.0907 206.332 98.8136 206.606C102.969 206.847 106.946 208.38 110.19 210.989C113.876 213.954 116.158 218.946 120.722 228.929L126.115 240.725C127.204 243.106 127.748 244.296 128.302 245.227C133.425 253.831 144.122 257.32 153.333 253.392C154.329 252.967 155.471 252.326 157.754 251.045V251.045C158.59 250.576 159.008 250.342 159.428 250.119C163.156 248.142 167.174 246.767 171.332 246.046C171.8 245.965 172.274 245.894 173.223 245.753L182.998 244.296C186.777 243.733 188.667 243.452 190.495 243.091C205.516 240.132 219.372 232.926 230.419 222.326C231.764 221.037 233.079 219.651 235.71 216.88V216.88C237.583 214.908 238.52 213.921 239.469 213.043C247.321 205.778 257.755 201.96 268.441 202.443C269.733 202.501 271.085 202.651 273.789 202.949L300.427 205.886C308.078 206.729 311.904 207.151 315.36 206.296C318.414 205.541 321.247 204.075 323.628 202.019C326.322 199.692 328.189 196.326 331.921 189.594L353.1 151.393C356.177 145.841 357.716 143.065 359.799 141.025C362.789 138.097 366.621 136.18 370.757 135.545C373.639 135.102 376.783 135.536 383.071 136.403L392.761 137.74C394.77 138.017 395.775 138.156 396.713 138.24C410.428 139.478 423.816 133.574 432.151 122.611C432.721 121.862 433.296 121.027 434.446 119.356V119.356C435.557 117.742 436.113 116.935 436.545 116.415C443.253 108.337 455.972 109.474 461.141 118.614C461.474 119.203 461.878 120.096 462.685 121.881L473.697 146.236C476.033 151.405 477.202 153.989 478.793 155.74C482.291 159.591 487.535 161.354 492.649 160.399C494.975 159.964 497.467 158.611 502.452 155.903V155.903C509.49 152.081 513.01 150.17 516.524 149.248C524.207 147.233 532.376 148.347 539.239 152.346C542.378 154.175 545.256 156.959 551.014 162.527L554.795 166.183C562.381 173.519 566.174 177.187 570.539 178.619C574.381 179.881 578.516 179.947 582.397 178.81C586.805 177.519 590.714 173.975 598.533 166.887L612.58 154.152C615.297 151.689 616.656 150.457 618.184 149.505C619.541 148.661 620.993 147.982 622.511 147.483C624.221 146.921 626.038 146.669 629.671 146.164L664 141.397" stroke="black" stroke-linecap="round" style="mix-blend-mode:screen"/>
</g>
<path d="M100.178 313.273H101.235V319.511C101.235 320.068 101.132 320.541 100.928 320.93C100.723 321.32 100.435 321.615 100.063 321.817C99.6906 322.018 99.2517 322.119 98.746 322.119C98.2688 322.119 97.8441 322.033 97.4719 321.859C97.0997 321.683 96.8071 321.433 96.5941 321.109C96.381 320.786 96.2745 320.401 96.2745 319.955H97.3142C97.3142 320.202 97.3753 320.418 97.4975 320.602C97.6225 320.784 97.7929 320.926 98.0088 321.028C98.2247 321.131 98.4705 321.182 98.746 321.182C99.05 321.182 99.3085 321.118 99.5216 320.99C99.7347 320.862 99.8966 320.675 100.007 320.428C100.121 320.178 100.178 319.872 100.178 319.511V313.273ZM105.142 322.153C104.728 322.153 104.351 322.075 104.013 321.919C103.675 321.76 103.407 321.531 103.208 321.233C103.009 320.932 102.909 320.568 102.909 320.142C102.909 319.767 102.983 319.463 103.131 319.23C103.279 318.994 103.476 318.81 103.723 318.676C103.97 318.543 104.243 318.443 104.541 318.378C104.843 318.31 105.145 318.256 105.449 318.216C105.847 318.165 106.169 318.126 106.416 318.101C106.666 318.072 106.848 318.026 106.962 317.96C107.078 317.895 107.137 317.781 107.137 317.619V317.585C107.137 317.165 107.022 316.838 106.791 316.605C106.564 316.372 106.219 316.256 105.756 316.256C105.276 316.256 104.899 316.361 104.627 316.571C104.354 316.781 104.162 317.006 104.051 317.244L103.097 316.903C103.267 316.506 103.495 316.196 103.779 315.974C104.066 315.75 104.378 315.594 104.716 315.506C105.057 315.415 105.392 315.369 105.722 315.369C105.932 315.369 106.174 315.395 106.446 315.446C106.722 315.494 106.988 315.595 107.243 315.749C107.502 315.902 107.716 316.134 107.887 316.443C108.057 316.753 108.142 317.168 108.142 317.688V322H107.137V321.114H107.086C107.017 321.256 106.904 321.408 106.745 321.57C106.586 321.732 106.374 321.869 106.11 321.983C105.845 322.097 105.523 322.153 105.142 322.153ZM105.296 321.25C105.693 321.25 106.029 321.172 106.301 321.016C106.577 320.859 106.784 320.658 106.924 320.411C107.066 320.163 107.137 319.903 107.137 319.631V318.71C107.094 318.761 107 318.808 106.855 318.851C106.713 318.891 106.549 318.926 106.361 318.957C106.176 318.986 105.996 319.011 105.82 319.034C105.647 319.054 105.506 319.071 105.398 319.085C105.137 319.119 104.892 319.175 104.665 319.251C104.441 319.325 104.259 319.437 104.12 319.588C103.983 319.736 103.915 319.937 103.915 320.193C103.915 320.543 104.044 320.807 104.303 320.986C104.564 321.162 104.895 321.25 105.296 321.25ZM110.984 318.062V322H109.978V315.455H110.95V316.477H111.035C111.188 316.145 111.421 315.878 111.734 315.676C112.046 315.472 112.45 315.369 112.944 315.369C113.387 315.369 113.775 315.46 114.107 315.642C114.44 315.821 114.698 316.094 114.883 316.46C115.067 316.824 115.16 317.284 115.16 317.841V322H114.154V317.909C114.154 317.395 114.021 316.994 113.753 316.707C113.486 316.418 113.12 316.273 112.654 316.273C112.333 316.273 112.046 316.342 111.793 316.482C111.543 316.621 111.346 316.824 111.201 317.091C111.056 317.358 110.984 317.682 110.984 318.062Z" fill="black" fill-opacity="0.4"/>
<path d="M182.343 322V313.273H187.575V314.21H183.399V317.159H187.183V318.097H183.399V322H182.343ZM191.513 322.136C190.882 322.136 190.338 321.997 189.881 321.719C189.426 321.438 189.075 321.045 188.828 320.543C188.584 320.037 188.462 319.449 188.462 318.778C188.462 318.108 188.584 317.517 188.828 317.006C189.075 316.491 189.419 316.091 189.86 315.804C190.303 315.514 190.82 315.369 191.411 315.369C191.752 315.369 192.088 315.426 192.421 315.54C192.753 315.653 193.056 315.838 193.328 316.094C193.601 316.347 193.818 316.682 193.98 317.099C194.142 317.517 194.223 318.031 194.223 318.642V319.068H189.178V318.199H193.2C193.2 317.83 193.127 317.5 192.979 317.21C192.834 316.92 192.627 316.692 192.357 316.524C192.09 316.357 191.774 316.273 191.411 316.273C191.01 316.273 190.664 316.372 190.371 316.571C190.081 316.767 189.858 317.023 189.702 317.338C189.546 317.653 189.468 317.991 189.468 318.352V318.932C189.468 319.426 189.553 319.845 189.723 320.189C189.897 320.53 190.137 320.79 190.443 320.969C190.75 321.145 191.107 321.233 191.513 321.233C191.777 321.233 192.016 321.196 192.229 321.122C192.445 321.045 192.631 320.932 192.787 320.781C192.943 320.628 193.064 320.437 193.149 320.21L194.121 320.483C194.019 320.812 193.847 321.102 193.605 321.352C193.364 321.599 193.066 321.793 192.71 321.932C192.355 322.068 191.956 322.136 191.513 322.136ZM195.889 322V313.273H196.895V316.494H196.98C197.054 316.381 197.156 316.236 197.287 316.06C197.421 315.881 197.611 315.722 197.858 315.582C198.108 315.44 198.446 315.369 198.872 315.369C199.423 315.369 199.909 315.507 200.33 315.783C200.75 316.058 201.078 316.449 201.314 316.955C201.55 317.46 201.668 318.057 201.668 318.744C201.668 319.438 201.55 320.038 201.314 320.547C201.078 321.053 200.752 321.445 200.334 321.723C199.916 321.999 199.435 322.136 198.889 322.136C198.469 322.136 198.132 322.067 197.879 321.928C197.627 321.786 197.432 321.625 197.296 321.446C197.159 321.264 197.054 321.114 196.98 320.994H196.861V322H195.889ZM196.878 318.727C196.878 319.222 196.95 319.658 197.095 320.036C197.24 320.411 197.452 320.705 197.73 320.918C198.009 321.128 198.35 321.233 198.753 321.233C199.173 321.233 199.524 321.122 199.806 320.901C200.09 320.676 200.303 320.375 200.445 319.997C200.59 319.616 200.662 319.193 200.662 318.727C200.662 318.267 200.591 317.852 200.449 317.483C200.31 317.111 200.098 316.817 199.814 316.601C199.533 316.382 199.179 316.273 198.753 316.273C198.344 316.273 198 316.376 197.722 316.584C197.443 316.788 197.233 317.075 197.091 317.445C196.949 317.811 196.878 318.239 196.878 318.727Z" fill="black" fill-opacity="0.4"/>
<path d="M267.749 313.273H269.01L271.976 320.517H272.078L275.044 313.273H276.305V322H275.317V315.369H275.231L272.504 322H271.55L268.822 315.369H268.737V322H267.749V313.273ZM280.214 322.153C279.799 322.153 279.423 322.075 279.085 321.919C278.747 321.76 278.478 321.531 278.279 321.233C278.081 320.932 277.981 320.568 277.981 320.142C277.981 319.767 278.055 319.463 278.203 319.23C278.35 318.994 278.548 318.81 278.795 318.676C279.042 318.543 279.315 318.443 279.613 318.378C279.914 318.31 280.217 318.256 280.521 318.216C280.919 318.165 281.241 318.126 281.488 318.101C281.738 318.072 281.92 318.026 282.034 317.96C282.15 317.895 282.208 317.781 282.208 317.619V317.585C282.208 317.165 282.093 316.838 281.863 316.605C281.636 316.372 281.291 316.256 280.828 316.256C280.348 316.256 279.971 316.361 279.698 316.571C279.426 316.781 279.234 317.006 279.123 317.244L278.169 316.903C278.339 316.506 278.566 316.196 278.85 315.974C279.137 315.75 279.45 315.594 279.788 315.506C280.129 315.415 280.464 315.369 280.794 315.369C281.004 315.369 281.245 315.395 281.518 315.446C281.794 315.494 282.059 315.595 282.315 315.749C282.573 315.902 282.788 316.134 282.958 316.443C283.129 316.753 283.214 317.168 283.214 317.688V322H282.208V321.114H282.157C282.089 321.256 281.975 321.408 281.816 321.57C281.657 321.732 281.446 321.869 281.181 321.983C280.917 322.097 280.595 322.153 280.214 322.153ZM280.367 321.25C280.765 321.25 281.1 321.172 281.373 321.016C281.649 320.859 281.856 320.658 281.995 320.411C282.137 320.163 282.208 319.903 282.208 319.631V318.71C282.166 318.761 282.072 318.808 281.927 318.851C281.785 318.891 281.62 318.926 281.433 318.957C281.248 318.986 281.068 319.011 280.892 319.034C280.718 319.054 280.578 319.071 280.47 319.085C280.208 319.119 279.964 319.175 279.737 319.251C279.512 319.325 279.331 319.437 279.191 319.588C279.055 319.736 278.987 319.937 278.987 320.193C278.987 320.543 279.116 320.807 279.375 320.986C279.636 321.162 279.967 321.25 280.367 321.25ZM285.05 322V315.455H286.021V316.443H286.089C286.209 316.119 286.425 315.857 286.737 315.655C287.05 315.453 287.402 315.352 287.794 315.352C287.868 315.352 287.96 315.354 288.071 315.357C288.182 315.359 288.266 315.364 288.322 315.369V316.392C288.288 316.384 288.21 316.371 288.088 316.354C287.969 316.334 287.842 316.324 287.709 316.324C287.391 316.324 287.106 316.391 286.856 316.524C286.609 316.655 286.413 316.837 286.268 317.07C286.126 317.3 286.055 317.562 286.055 317.858V322H285.05Z" fill="black" fill-opacity="0.4"/>
<path d="M354.971 322H353.863L357.068 313.273H358.159L361.363 322H360.256L357.648 314.653H357.579L354.971 322ZM355.381 318.591H359.846V319.528H355.381V318.591ZM362.586 324.455V315.455H363.558V316.494H363.677C363.751 316.381 363.854 316.236 363.984 316.06C364.118 315.881 364.308 315.722 364.555 315.582C364.805 315.44 365.143 315.369 365.569 315.369C366.121 315.369 366.606 315.507 367.027 315.783C367.447 316.058 367.775 316.449 368.011 316.955C368.247 317.46 368.365 318.057 368.365 318.744C368.365 319.438 368.247 320.038 368.011 320.547C367.775 321.053 367.449 321.445 367.031 321.723C366.613 321.999 366.132 322.136 365.586 322.136C365.166 322.136 364.829 322.067 364.577 321.928C364.324 321.786 364.129 321.625 363.993 321.446C363.856 321.264 363.751 321.114 363.677 320.994H363.592V324.455H362.586ZM363.575 318.727C363.575 319.222 363.648 319.658 363.792 320.036C363.937 320.411 364.149 320.705 364.427 320.918C364.706 321.128 365.047 321.233 365.45 321.233C365.871 321.233 366.221 321.122 366.503 320.901C366.787 320.676 367 320.375 367.142 319.997C367.287 319.616 367.359 319.193 367.359 318.727C367.359 318.267 367.288 317.852 367.146 317.483C367.007 317.111 366.795 316.817 366.511 316.601C366.23 316.382 365.876 316.273 365.45 316.273C365.041 316.273 364.697 316.376 364.419 316.584C364.14 316.788 363.93 317.075 363.788 317.445C363.646 317.811 363.575 318.239 363.575 318.727ZM369.899 322V315.455H370.871V316.443H370.939C371.058 316.119 371.274 315.857 371.586 315.655C371.899 315.453 372.251 315.352 372.643 315.352C372.717 315.352 372.809 315.354 372.92 315.357C373.031 315.359 373.115 315.364 373.172 315.369V316.392C373.138 316.384 373.059 316.371 372.937 316.354C372.818 316.334 372.692 316.324 372.558 316.324C372.24 316.324 371.956 316.391 371.706 316.524C371.459 316.655 371.263 316.837 371.118 317.07C370.976 317.3 370.905 317.562 370.905 317.858V322H369.899Z" fill="black" fill-opacity="0.4"/>
<path d="M438.473 313.273H439.734L442.7 320.517H442.802L445.768 313.273H447.029V322H446.041V315.369H445.956L443.228 322H442.274L439.546 315.369H439.461V322H438.473V313.273ZM450.938 322.153C450.523 322.153 450.147 322.075 449.809 321.919C449.471 321.76 449.202 321.531 449.003 321.233C448.805 320.932 448.705 320.568 448.705 320.142C448.705 319.767 448.779 319.463 448.927 319.23C449.074 318.994 449.272 318.81 449.519 318.676C449.766 318.543 450.039 318.443 450.337 318.378C450.638 318.31 450.941 318.256 451.245 318.216C451.643 318.165 451.965 318.126 452.212 318.101C452.462 318.072 452.644 318.026 452.758 317.96C452.874 317.895 452.932 317.781 452.932 317.619V317.585C452.932 317.165 452.817 316.838 452.587 316.605C452.36 316.372 452.015 316.256 451.552 316.256C451.072 316.256 450.695 316.361 450.423 316.571C450.15 316.781 449.958 317.006 449.847 317.244L448.893 316.903C449.063 316.506 449.29 316.196 449.574 315.974C449.861 315.75 450.174 315.594 450.512 315.506C450.853 315.415 451.188 315.369 451.518 315.369C451.728 315.369 451.969 315.395 452.242 315.446C452.518 315.494 452.783 315.595 453.039 315.749C453.298 315.902 453.512 316.134 453.682 316.443C453.853 316.753 453.938 317.168 453.938 317.688V322H452.932V321.114H452.881C452.813 321.256 452.699 321.408 452.54 321.57C452.381 321.732 452.17 321.869 451.905 321.983C451.641 322.097 451.319 322.153 450.938 322.153ZM451.092 321.25C451.489 321.25 451.824 321.172 452.097 321.016C452.373 320.859 452.58 320.658 452.719 320.411C452.861 320.163 452.932 319.903 452.932 319.631V318.71C452.89 318.761 452.796 318.808 452.651 318.851C452.509 318.891 452.344 318.926 452.157 318.957C451.972 318.986 451.792 319.011 451.616 319.034C451.442 319.054 451.302 319.071 451.194 319.085C450.932 319.119 450.688 319.175 450.461 319.251C450.236 319.325 450.055 319.437 449.915 319.588C449.779 319.736 449.711 319.937 449.711 320.193C449.711 320.543 449.84 320.807 450.099 320.986C450.36 321.162 450.691 321.25 451.092 321.25ZM456.187 324.455C456.017 324.455 455.865 324.44 455.731 324.412C455.598 324.386 455.505 324.361 455.454 324.335L455.71 323.449C455.954 323.511 456.17 323.534 456.358 323.517C456.545 323.5 456.711 323.416 456.856 323.266C457.004 323.118 457.139 322.878 457.261 322.545L457.448 322.034L455.028 315.455H456.119L457.926 320.67H457.994L459.801 315.455H460.892L458.113 322.955C457.988 323.293 457.833 323.572 457.649 323.794C457.464 324.018 457.25 324.185 457.005 324.293C456.764 324.401 456.491 324.455 456.187 324.455Z" fill="black" fill-opacity="0.4"/>
<path d="M529.358 313.273H530.415V319.511C530.415 320.068 530.313 320.541 530.108 320.93C529.904 321.32 529.615 321.615 529.243 321.817C528.871 322.018 528.432 322.119 527.926 322.119C527.449 322.119 527.024 322.033 526.652 321.859C526.28 321.683 525.987 321.433 525.774 321.109C525.561 320.786 525.455 320.401 525.455 319.955H526.494C526.494 320.202 526.556 320.418 526.678 320.602C526.803 320.784 526.973 320.926 527.189 321.028C527.405 321.131 527.651 321.182 527.926 321.182C528.23 321.182 528.489 321.118 528.702 320.99C528.915 320.862 529.077 320.675 529.188 320.428C529.301 320.178 529.358 319.872 529.358 319.511V313.273ZM536.521 319.324V315.455H537.527V322H536.521V320.892H536.453C536.3 321.224 536.061 321.507 535.737 321.74C535.414 321.97 535.004 322.085 534.51 322.085C534.101 322.085 533.737 321.996 533.419 321.817C533.101 321.635 532.851 321.362 532.669 320.999C532.487 320.632 532.396 320.17 532.396 319.614V315.455H533.402V319.545C533.402 320.023 533.536 320.403 533.803 320.688C534.073 320.972 534.416 321.114 534.834 321.114C535.084 321.114 535.338 321.05 535.597 320.922C535.858 320.794 536.077 320.598 536.253 320.334C536.432 320.07 536.521 319.733 536.521 319.324ZM540.375 318.062V322H539.369V315.455H540.341V316.477H540.426C540.579 316.145 540.812 315.878 541.125 315.676C541.437 315.472 541.841 315.369 542.335 315.369C542.778 315.369 543.166 315.46 543.498 315.642C543.831 315.821 544.089 316.094 544.274 316.46C544.459 316.824 544.551 317.284 544.551 317.841V322H543.545V317.909C543.545 317.395 543.412 316.994 543.145 316.707C542.878 316.418 542.511 316.273 542.045 316.273C541.724 316.273 541.437 316.342 541.184 316.482C540.934 316.621 540.737 316.824 540.592 317.091C540.447 317.358 540.375 317.682 540.375 318.062Z" fill="black" fill-opacity="0.4"/>
<path d="M617.301 313.273H618.358V319.511C618.358 320.068 618.256 320.541 618.051 320.93C617.847 321.32 617.558 321.615 617.186 321.817C616.814 322.018 616.375 322.119 615.869 322.119C615.392 322.119 614.967 322.033 614.595 321.859C614.223 321.683 613.93 321.433 613.717 321.109C613.504 320.786 613.398 320.401 613.398 319.955H614.438C614.438 320.202 614.499 320.418 614.621 320.602C614.746 320.784 614.916 320.926 615.132 321.028C615.348 321.131 615.594 321.182 615.869 321.182C616.173 321.182 616.432 321.118 616.645 320.99C616.858 320.862 617.02 320.675 617.131 320.428C617.244 320.178 617.301 319.872 617.301 319.511V313.273ZM624.465 319.324V315.455H625.47V322H624.465V320.892H624.396C624.243 321.224 624.004 321.507 623.68 321.74C623.357 321.97 622.948 322.085 622.453 322.085C622.044 322.085 621.68 321.996 621.362 321.817C621.044 321.635 620.794 321.362 620.612 320.999C620.43 320.632 620.34 320.17 620.34 319.614V315.455H621.345V319.545C621.345 320.023 621.479 320.403 621.746 320.688C622.016 320.972 622.359 321.114 622.777 321.114C623.027 321.114 623.281 321.05 623.54 320.922C623.801 320.794 624.02 320.598 624.196 320.334C624.375 320.07 624.465 319.733 624.465 319.324ZM628.318 313.273V322H627.312V313.273H628.318Z" fill="black" fill-opacity="0.4"/>
</g>
<defs>
<filter id="filter0_d_122_171" x="-6" y="0" width="708" height="360" filterUnits="userSpaceOnUse" color-interpolation-filters="sRGB">
<feFlood flood-opacity="0" result="BackgroundImageFix"/>
<feColorMatrix in="SourceAlpha" type="matrix" values="0 0 0 0 0 0 0 0 0 0 0 0 0 0 0 0 0 0 127 0" result="hardAlpha"/>
<feOffset dx="4"/>
<feGaussianBlur stdDeviation="5"/>
<feComposite in2="hardAlpha" operator="out"/>
<feColorMatrix type="matrix" values="0 0 0 0 0 0 0 0 0 0 0 0 0 0 0 0 0 0 0.05 0"/>
<feBlend mode="normal" in2="BackgroundImageFix" result="effect1_dropShadow_122_171"/>
<feBlend mode="normal" in="SourceGraphic" in2="effect1_dropShadow_122_171" result="shape"/>
</filter>
<radialGradient id="paint0_radial_122_171" cx="0" cy="0" r="1" gradientUnits="userSpaceOnUse" gradientTransform="translate(363.499 137.923) rotate(90) scale(157.677 300.499)">
<stop stop-opacity="0.1"/>
<stop offset="1" stop-opacity="0"/>
</radialGradient>
<linearGradient id="paint1_linear_122_171" x1="65.833" y1="281.971" x2="664" y2="281.971" gradientUnits="userSpaceOnUse">
<stop stop-opacity="0.4"/>
<stop offset="1"/>
</linearGradient>
</defs>
</svg>
