<svg width="20" height="18" viewBox="0 0 20 18" fill="none" xmlns="http://www.w3.org/2000/svg">
<path d="M1 7.5H2.04548M2.04548 7.5H17.9545M2.04548 7.5C2.05661 7.44853 2.06977 7.39751 2.08496 7.34711C2.12122 7.22683 2.17242 7.11115 2.27539 6.87948L3.82165 3.40039C4.12737 2.71253 4.28048 2.3684 4.5221 2.11621C4.73568 1.89329 4.99764 1.723 5.28809 1.61837C5.61667 1.5 5.99336 1.5 6.74609 1.5H13.2536C14.0063 1.5 14.3833 1.5 14.7119 1.61837C15.0024 1.723 15.264 1.89329 15.4775 2.11621C15.719 2.36823 15.8718 2.71208 16.1771 3.399L17.7296 6.89213C17.8289 7.1154 17.8794 7.22903 17.915 7.34711C17.9301 7.39751 17.9433 7.44853 17.9545 7.5M2.04548 7.5C2.03302 7.55764 2.0231 7.61583 2.01572 7.67432C2 7.79896 2 7.92567 2 8.1792V13.5M17.9545 7.5H19M17.9545 7.5C17.967 7.55764 17.977 7.61583 17.9844 7.67432C18 7.7982 18 7.92418 18 8.17464V13.5001M18 13.5001L14 13.5001M18 13.5001V14.4999C18 15.6045 17.1046 16.5 16 16.5C14.8954 16.5 14 15.6046 14 14.5V13.5001M14 13.5001L6 13.5M6 13.5H2M6 13.5V14.5C6 15.6046 5.10457 16.5 4 16.5C2.89543 16.5 2 15.6046 2 14.5V13.5" stroke="black" stroke-width="2" stroke-linecap="round" stroke-linejoin="round"/>
</svg>
