<svg width="112" height="32" viewBox="0 0 112 32" fill="none" xmlns="http://www.w3.org/2000/svg">
<path d="M24 16C24 18.6926 23.0944 21.307 21.4288 23.4227C19.7633 25.5384 17.4346 27.0325 14.8172 27.6646C12.1998 28.2968 9.44587 28.0302 6.99828 26.9079C4.5507 25.7856 2.55169 23.8727 1.32275 21.4769C0.0938121 19.0811 -0.293642 16.3415 0.222699 13.6989C0.739041 11.0562 2.12917 8.66399 4.16953 6.90694C6.20988 5.14989 8.78189 4.13012 11.4719 4.01163C14.1619 3.89313 16.8137 4.6828 19.0006 6.25364L15.7596 10.7658C14.5852 9.92215 13.1611 9.49806 11.7164 9.5617C10.2717 9.62533 8.89044 10.173 7.79468 11.1166C6.69891 12.0602 5.95235 13.345 5.67505 14.7642C5.39775 16.1834 5.60583 17.6547 6.26583 18.9413C6.92583 20.228 7.99938 21.2553 9.31385 21.8581C10.6283 22.4608 12.1073 22.6039 13.513 22.2644C14.9186 21.9249 16.1692 21.1226 17.0637 19.9863C17.9582 18.8501 18.4445 17.4461 18.4445 16H24Z" fill="#8F3B3B"/>
<path d="M40.3704 13.0994C40.252 12.7159 40.0887 12.3726 39.8803 12.0696C39.6767 11.7618 39.4305 11.4991 39.1417 11.2812C38.8576 11.0634 38.5309 10.9001 38.1616 10.7912C37.7923 10.6776 37.3898 10.6207 36.9542 10.6207C36.1729 10.6207 35.4769 10.8172 34.8661 11.2102C34.2553 11.6032 33.7747 12.1809 33.4244 12.9432C33.0787 13.7008 32.9059 14.6241 32.9059 15.7131C32.9059 16.8116 33.0787 17.742 33.4244 18.5043C33.77 19.2666 34.2506 19.8466 34.8661 20.2443C35.4817 20.6373 36.1966 20.8338 37.011 20.8338C37.7496 20.8338 38.3888 20.6918 38.9286 20.4077C39.4731 20.1236 39.8922 19.7211 40.1857 19.2003C40.4793 18.6747 40.6261 18.0592 40.6261 17.3537L41.2227 17.446H37.2738V15.3864H43.1758V17.1335C43.1758 18.3788 42.9106 19.456 42.3803 20.3651C41.85 21.2741 41.1209 21.9749 40.1928 22.4673C39.2648 22.955 38.1995 23.1989 36.9968 23.1989C35.6568 23.1989 34.4802 22.8982 33.467 22.2969C32.4585 21.6908 31.6701 20.8314 31.1019 19.7188C30.5385 18.6013 30.2567 17.2756 30.2567 15.7415C30.2567 14.5672 30.4225 13.5185 30.7539 12.5952C31.0901 11.6719 31.5588 10.8883 32.1602 10.2443C32.7615 9.59564 33.467 9.10322 34.2766 8.76705C35.0863 8.42614 35.967 8.25568 36.9187 8.25568C37.7236 8.25568 38.4741 8.37405 39.1701 8.6108C39.8661 8.8428 40.484 9.17424 41.0238 9.60511C41.5683 10.036 42.0157 10.5473 42.3661 11.1392C42.7165 11.7311 42.9461 12.3845 43.055 13.0994H40.3704ZM45.7237 23V8.45455H51.1783C52.2957 8.45455 53.2332 8.64867 53.9908 9.03693C54.7531 9.42519 55.3284 9.9697 55.7166 10.6705C56.1096 11.3665 56.3061 12.1785 56.3061 13.1065C56.3061 14.0393 56.1072 14.849 55.7095 15.5355C55.3165 16.2173 54.7365 16.7453 53.9695 17.1193C53.2024 17.4886 52.2602 17.6733 51.1428 17.6733H47.2578V15.4858H50.7876C51.4411 15.4858 51.9761 15.3958 52.3928 15.2159C52.8094 15.0312 53.1172 14.7637 53.3161 14.4134C53.5196 14.0582 53.6214 13.6226 53.6214 13.1065C53.6214 12.5904 53.5196 12.1501 53.3161 11.7855C53.1125 11.4162 52.8023 11.1368 52.3857 10.9474C51.969 10.7533 51.4316 10.6562 50.7734 10.6562H48.3587V23H45.7237ZM53.2379 16.4091L56.8388 23H53.8984L50.3615 16.4091H53.2379ZM60.5994 23H57.7869L62.9077 8.45455H66.1605L71.2884 23H68.4759L64.5909 11.4375H64.4773L60.5994 23ZM60.6918 17.2969H68.3622V19.4134H60.6918V17.2969ZM80.8746 12.4531C80.8084 11.8329 80.529 11.3499 80.0366 11.0043C79.5489 10.6586 78.9144 10.4858 78.1332 10.4858C77.5839 10.4858 77.1128 10.5687 76.7198 10.7344C76.3268 10.9001 76.0262 11.125 75.8178 11.4091C75.6095 11.6932 75.503 12.0175 75.4982 12.3821C75.4982 12.6851 75.5669 12.9479 75.7042 13.1705C75.8462 13.393 76.038 13.5824 76.2795 13.7386C76.521 13.8902 76.7885 14.018 77.082 14.1222C77.3756 14.2263 77.6715 14.3139 77.9698 14.3849L79.3335 14.7259C79.8827 14.8537 80.4106 15.0265 80.9173 15.2443C81.4286 15.4621 81.8855 15.7367 82.288 16.0682C82.6952 16.3996 83.0172 16.7997 83.2539 17.2685C83.4906 17.7372 83.609 18.2865 83.609 18.9162C83.609 19.7685 83.3912 20.5189 82.9556 21.1676C82.52 21.8116 81.8903 22.3158 81.0664 22.6804C80.2473 23.0402 79.2553 23.2202 78.0906 23.2202C76.9589 23.2202 75.9764 23.045 75.1431 22.6946C74.3145 22.3442 73.6658 21.8329 73.1971 21.1605C72.7331 20.4882 72.4821 19.669 72.4442 18.7031H75.0366C75.0745 19.2098 75.2307 19.6312 75.5053 19.9673C75.7799 20.3035 76.1374 20.5545 76.5778 20.7202C77.0228 20.8859 77.52 20.9688 78.0692 20.9688C78.6422 20.9688 79.1441 20.8835 79.5749 20.7131C80.0105 20.5379 80.3514 20.2964 80.5977 19.9886C80.8439 19.6761 80.9693 19.3116 80.9741 18.8949C80.9693 18.5161 80.8581 18.2036 80.6403 17.9574C80.4225 17.7064 80.1171 17.4981 79.7241 17.3324C79.3358 17.1619 78.8813 17.0104 78.3604 16.8778L76.7056 16.4517C75.5077 16.1439 74.5607 15.6776 73.8647 15.0526C73.1734 14.4228 72.8278 13.5871 72.8278 12.5455C72.8278 11.6884 73.0598 10.938 73.5238 10.294C73.9925 9.65009 74.6294 9.15057 75.4343 8.79545C76.2392 8.43561 77.1507 8.25568 78.1687 8.25568C79.2009 8.25568 80.1052 8.43561 80.8817 8.79545C81.663 9.15057 82.2762 9.64536 82.7212 10.2798C83.1663 10.9096 83.396 11.634 83.4102 12.4531H80.8746ZM85.3189 10.6634V8.45455H96.924V10.6634H92.4283V23H89.8146V10.6634H85.3189ZM98.1669 8.45455H101.143L104.701 14.8892H104.843L108.401 8.45455H111.377L106.086 17.5739V23H103.458V17.5739L98.1669 8.45455Z" fill="black"/>
</svg>
