<svg width="14" height="18" viewBox="0 0 14 18" fill="none" xmlns="http://www.w3.org/2000/svg">
<path d="M4.612 10.516V12.82H9.844V14.572H4.612V17.5H2.428V14.572H0.364V12.82H2.428V10.516H0.364V8.788H2.428V0.771999H7.828C9.716 0.771999 11.148 1.228 12.124 2.14C13.116 3.052 13.612 4.228 13.612 5.668C13.612 7.06 13.132 8.22 12.172 9.148C11.228 10.06 9.78 10.516 7.828 10.516H4.612ZM4.612 8.788H7.828C9.028 8.788 9.916 8.516 10.492 7.972C11.084 7.412 11.38 6.644 11.38 5.668C11.38 4.66 11.092 3.884 10.516 3.34C9.94 2.78 9.044 2.5 7.828 2.5H4.612V8.788Z" fill="black"/>
</svg>
